<svg width="64" height="64" viewBox="0 0 64 64" fill="none" xmlns="http://www.w3.org/2000/svg">
<path fill-rule="evenodd" clip-rule="evenodd" d="M9.65798 4.65051C8.003 4.65051 6.66138 5.98901 6.66138 7.64013V34.2145C6.66138 48.0962 17.9409 59.3495 31.855 59.3495C45.7691 59.3495 57.0486 48.0962 57.0486 34.2145V7.64013C57.0486 5.98901 55.707 4.65051 54.052 4.65051H9.65798Z" fill="white"/>
<path d="M2 7.64014C2 3.4206 5.42861 0 9.65802 0H32.2024V4.65052H9.65802C8.00303 4.65052 6.6614 5.98902 6.6614 7.64014V29.7848H2V7.64014Z" fill="#70CBF2"/>
<path d="M54.0523 0C58.2817 0 61.7103 3.42061 61.7103 7.64014V29.7848H57.0489V7.64014C57.0489 5.98902 55.7073 4.65052 54.0523 4.65052H32.2024V0H54.0523Z" fill="#F27A86"/>
<path d="M31.8552 64C15.3666 64 2 50.6646 2 34.2145V29.7849H6.6614V34.2145C6.6614 48.0962 17.941 59.3495 31.8552 59.3495V64Z" fill="#F6C28B"/>
<path d="M61.7103 34.2145C61.7103 50.6646 48.3437 64 31.8552 64V59.3495C45.7693 59.3495 57.0489 48.0962 57.0489 34.2145V29.7849H61.7103V34.2145Z" fill="#57C0B3"/>
<path fill-rule="evenodd" clip-rule="evenodd" d="M32.1671 17.4161H24.5456C21.8612 17.4161 19.9065 19.7263 19.9065 22.4392V37.8435C19.9065 40.5298 21.8875 42.5318 24.5456 42.5318H40.1198C42.8043 42.5318 44.7589 40.5564 44.7589 37.8435V29.8065H32.1671V17.4161Z" fill="#1E232C"/>
</svg>
