<svg width="1856" height="512" viewBox="0 0 1856 512" fill="none" xmlns="http://www.w3.org/2000/svg">
<path fill-rule="evenodd" clip-rule="evenodd" d="M80 36C64 36 52 48 52 64V276C52 388 144 476 256 476C368 476 460 388 460 276V64C460 48 448 36 432 36H80Z" fill="#1E232C"/>
<path d="M16 64C16 28 44 0 80 0H260V36H80C64 36 52 48 52 64V240H16V64Z" fill="#70CBF2"/>
<path d="M432 0C468 0 496 28 496 64V240H460V64C460 48 448 36 432 36H260V0H432Z" fill="#F27A86"/>
<path d="M256 512C124 512 16 408 16 276V240H52V276C52 388 144 476 256 476V512Z" fill="#F6C28B"/>
<path d="M496 276C496 408 388 512 256 512V476C368 476 460 388 460 276V240L496 240V276Z" fill="#57C0B3"/>
<path fill-rule="evenodd" clip-rule="evenodd" d="M260 140H200C172 140 160 152 160 180V300C160 328 172 340 200 340H320C347 340 360 328 360 300V240H260V140Z" fill="white"/>
<path d="M704 360.625V151.375H750.549V320.829H832.249V360.625H704Z" fill="white"/>
<path d="M931.23 360.625V151.375H1060.43V191.171H977.78V233.213H1048.08V272.689H977.78V320.829H1063.6V360.625H931.23Z" fill="white"/>
<path d="M1168.05 360.625V151.375H1215.86L1269.7 255.358L1289.96 301.573H1291.23C1290.17 290.447 1288.91 278.037 1287.43 264.344C1286.16 250.651 1285.53 237.6 1285.53 225.19V151.375H1329.86V360.625H1282.05L1228.21 256.321L1207.95 210.748H1206.68C1207.74 222.302 1208.9 234.711 1210.16 247.977C1211.64 261.242 1212.38 274.079 1212.38 286.489V360.625H1168.05Z" fill="white"/>
<path d="M1441.97 360.625V151.375H1516.39C1527.37 151.375 1537.61 152.445 1547.11 154.584C1556.82 156.724 1565.26 160.361 1572.44 165.496C1579.62 170.417 1585.32 177.05 1589.54 185.394C1593.76 193.738 1595.87 204.115 1595.87 216.525C1595.87 231.93 1592.49 244.66 1585.74 254.716C1579.19 264.558 1570.33 271.94 1559.14 276.861L1606 360.625H1553.76L1514.17 285.205H1488.52V360.625H1441.97ZM1488.52 247.656H1512.59C1524.83 247.656 1534.12 245.088 1540.46 239.953C1547 234.604 1550.27 226.795 1550.27 216.525C1550.27 206.255 1547 199.087 1540.46 195.022C1534.12 190.957 1524.83 188.924 1512.59 188.924H1488.52V247.656Z" fill="white"/>
<path d="M1745.48 254.716L1740.42 273.972H1784.43L1779.68 254.716C1776.73 244.232 1773.88 233.107 1771.13 221.339C1768.39 209.571 1765.65 198.232 1762.9 187.32H1761.63C1759.1 198.445 1756.46 209.892 1753.72 221.66C1751.18 233.213 1748.44 244.232 1745.48 254.716ZM1670.75 360.625L1735.35 151.375H1791.4L1856 360.625H1806.6L1793.93 310.88H1730.92L1718.25 360.625H1670.75Z" fill="white"/>
</svg>
