<svg width="832" height="832" viewBox="0 0 832 832" fill="none" xmlns="http://www.w3.org/2000/svg">
<path fill-rule="evenodd" clip-rule="evenodd" d="M240 36C224 36 212 48 212 64V276C212 388 304 476 416 476C528 476 620 388 620 276V64C620 48 608 36 592 36H240Z" fill="white"/>
<path d="M176 64C176 28 204 0 240 0H420V36H240C224 36 212 48 212 64V240H176V64Z" fill="#70CBF2"/>
<path d="M592 0C628 0 656 28 656 64V240H620V64C620 48 608 36 592 36H420V0H592Z" fill="#F27A86"/>
<path d="M416 512C284 512 176 408 176 276V240H212V276C212 388 304 476 416 476V512Z" fill="#F6C28B"/>
<path d="M656 276C656 408 548 512 416 512V476C528 476 620 388 620 276V240L656 240V276Z" fill="#57C0B3"/>
<path fill-rule="evenodd" clip-rule="evenodd" d="M420 140H360C332 140 320 152 320 180V300C320 328 332 340 360 340H480C507 340 520 328 520 300V240H420V140Z" fill="#1E232C"/>
<path d="M0 829.562V678.438H33.619V800.821H92.6239V829.562H0Z" fill="#1E232C"/>
<path d="M164.111 829.562V678.438H257.421V707.179H197.73V737.543H248.502V766.053H197.73V800.821H259.708V829.562H164.111Z" fill="#1E232C"/>
<path d="M335.145 829.562V678.438H369.679L408.558 753.536L423.195 786.914H424.11C423.348 778.878 422.433 769.916 421.366 760.027C420.451 750.137 419.993 740.711 419.993 731.749V678.438H452.012V829.562H417.478L378.598 754.232L363.962 721.318H363.047C363.809 729.662 364.648 738.625 365.563 748.205C366.63 757.786 367.163 767.057 367.163 776.02V829.562H335.145Z" fill="#1E232C"/>
<path d="M532.981 829.562V678.438H586.725C594.654 678.438 602.048 679.21 608.909 680.755C615.923 682.301 622.022 684.928 627.205 688.636C632.389 692.19 636.506 696.981 639.555 703.007C642.605 709.033 644.129 716.528 644.129 725.49C644.129 736.616 641.69 745.81 636.811 753.073C632.084 760.181 625.681 765.512 617.6 769.066L651.448 829.562H613.712L585.124 775.093H566.6V829.562H532.981ZM566.6 747.974H583.981C592.824 747.974 599.533 746.119 604.107 742.411C608.833 738.548 611.196 732.907 611.196 725.49C611.196 718.073 608.833 712.897 604.107 709.961C599.533 707.025 592.824 705.557 583.981 705.557H566.6V747.974Z" fill="#1E232C"/>
<path d="M752.183 753.073L748.524 766.98H780.314L776.883 753.073C774.748 745.501 772.69 737.466 770.708 728.967C768.726 720.468 766.744 712.278 764.762 704.398H763.847C762.018 712.433 760.112 720.7 758.13 729.199C756.3 737.543 754.318 745.501 752.183 753.073ZM698.21 829.562L744.865 678.438H785.345L832 829.562H796.323L787.175 793.636H741.663L732.515 829.562H698.21Z" fill="#1E232C"/>
</svg>
