<svg width="180" height="50" viewBox="0 0 180 50" fill="none" xmlns="http://www.w3.org/2000/svg">
<mask id="mask0" mask-type="alpha" maskUnits="userSpaceOnUse" x="0" y="0" width="46" height="50">
<path fill-rule="evenodd" clip-rule="evenodd" d="M0.363281 6.70005C0.363281 3.52341 2.97182 0.948242 6.18962 0.948242H39.9655C43.1833 0.948242 45.7919 3.52341 45.7919 6.70005V26.7063C45.7919 39.0906 35.6223 49.1301 23.0776 49.1301C10.5328 49.1301 0.363281 39.0906 0.363281 26.7063V6.70005ZM6.18962 4.44934C4.93048 4.44934 3.90975 5.45702 3.90975 6.70005V26.7063C3.90975 37.157 12.4915 45.629 23.0776 45.629C33.6637 45.629 42.2454 37.157 42.2454 26.7063V6.70005C42.2454 5.45702 41.2247 4.44934 39.9655 4.44934H6.18962Z" fill="white"/>
</mask>
<g mask="url(#mask0)">
<path d="M6.42412 49.1299C3.07681 49.1299 0.363281 46.4164 0.363281 43.069L0.36328 26.5533L22.9399 26.5533L22.9399 49.1299L6.42412 49.1299Z" fill="#F6C28B"/>
<path d="M45.792 23.2495H22.94V49.13H26.1608C37.0028 49.13 45.792 40.5071 45.792 29.8701V23.2495Z" fill="#57C0B3"/>
<path d="M0.363281 0.948242H22.9399V7.49841C22.9399 18.0222 14.1979 26.5534 3.41418 26.5534H0.363281V0.948242Z" fill="#70CBF2"/>
<path d="M22.9404 0.948242H39.6162C43.0272 0.948242 45.7924 3.62868 45.7924 6.93517V23.2495H22.9404V0.948242Z" fill="#F27A86"/>
</g>
<path fill-rule="evenodd" clip-rule="evenodd" d="M22.951 14.1118H17.1526C15.1102 14.1118 13.623 15.8511 13.623 17.8934V29.4904C13.623 31.5128 15.1302 33.0199 17.1526 33.0199H29.0016C31.044 33.0199 32.5312 31.5328 32.5312 29.4904V23.4398H22.951V14.1118Z" fill="white"/>
<path d="M66.3633 33.7701V13.8569H70.7654V29.9829H78.4916V33.7701H66.3633Z" fill="white"/>
<path d="M87.8522 33.7701V13.8569H100.07V17.6441H92.2544V21.645H98.9025V25.4017H92.2544V29.9829H100.37V33.7701H87.8522Z" fill="white"/>
<path d="M110.248 33.7701V13.8569H114.77L119.861 23.7524L121.777 28.1504H121.897C121.797 27.0916 121.677 25.9107 121.538 24.6076C121.418 23.3045 121.358 22.0625 121.358 20.8815V13.8569H125.55V33.7701H121.028L115.938 23.844L114.021 19.5071H113.901C114.001 20.6066 114.111 21.7876 114.231 23.05C114.37 24.3124 114.44 25.534 114.44 26.715V33.7701H110.248Z" fill="white"/>
<path d="M135.639 33.7701V13.8569H142.676C143.714 13.8569 144.683 13.9587 145.581 14.1623C146.499 14.366 147.298 14.7121 147.977 15.2008C148.656 15.6691 149.195 16.3003 149.594 17.0943C149.993 17.8884 150.193 18.8759 150.193 20.0569C150.193 21.5229 149.873 22.7344 149.234 23.6913C148.616 24.6279 147.777 25.3304 146.719 25.7987L151.151 33.7701H146.21L142.467 26.5928H140.041V33.7701H135.639ZM140.041 23.0194H142.317C143.475 23.0194 144.353 22.7751 144.952 22.2864C145.571 21.7774 145.88 21.0342 145.88 20.0569C145.88 19.0796 145.571 18.3975 144.952 18.0106C144.353 17.6237 143.475 17.4303 142.317 17.4303H140.041V23.0194Z" fill="white"/>
<path d="M165.626 23.6913L165.147 25.5238H169.31L168.86 23.6913C168.581 22.6936 168.311 21.6349 168.052 20.515C167.792 19.3951 167.533 18.316 167.273 17.2776H167.154C166.914 18.3364 166.664 19.4257 166.405 20.5456C166.165 21.645 165.906 22.6936 165.626 23.6913ZM158.559 33.7701L164.668 13.8569H169.968L176.078 33.7701H171.406L170.208 29.0361H164.249L163.051 33.7701H158.559Z" fill="white"/>
</svg>
