<svg width="85" height="89" viewBox="0 0 85 89" fill="none" xmlns="http://www.w3.org/2000/svg">
<mask id="mask0" mask-type="alpha" maskUnits="userSpaceOnUse" x="16" y="0" width="54" height="58">
<path fill-rule="evenodd" clip-rule="evenodd" d="M16.5 7.6499C16.5 3.94382 19.5433 0.939453 23.2974 0.939453H62.7026C66.4567 0.939453 69.5 3.94382 69.5 7.6499V30.9906C69.5 45.4389 57.6355 57.1516 43 57.1516C28.3645 57.1516 16.5 45.4389 16.5 30.9906V7.6499ZM23.2974 5.02407C21.8284 5.02407 20.6375 6.19969 20.6375 7.6499V30.9906C20.6375 43.183 30.6496 53.067 43 53.067C55.3504 53.067 65.3625 43.183 65.3625 30.9906V7.6499C65.3625 6.19969 64.1716 5.02407 62.7026 5.02407H23.2974Z" fill="white"/>
</mask>
<g mask="url(#mask0)">
<path d="M23.571 57.1514C19.6658 57.1514 16.5 53.9856 16.5 50.0804L16.5 30.812L42.8394 30.812L42.8394 57.1514L23.571 57.1514Z" fill="#F6C28B"/>
<path d="M69.5 26.9575H42.8394V57.1515H46.5969C59.2459 57.1515 69.5 47.0913 69.5 34.6816V26.9575Z" fill="#57C0B3"/>
<path d="M16.5 0.939453H42.8394V8.58131C42.8394 20.8591 32.6404 30.8122 20.0594 30.8122H16.5V0.939453Z" fill="#70CBF2"/>
<path d="M42.8398 0.939453H62.2949C66.2744 0.939453 69.5005 4.06663 69.5005 7.9242V26.9576H42.8398V0.939453Z" fill="#F27A86"/>
</g>
<path fill-rule="evenodd" clip-rule="evenodd" d="M42.8534 16.2969H36.0885C33.7057 16.2969 31.9707 18.326 31.9707 20.7088V34.2386C31.9707 36.598 33.7291 38.3563 36.0885 38.3563H49.9124C52.2952 38.3563 54.0302 36.6213 54.0302 34.2386V27.1795H42.8534V16.2969Z" fill="white"/>
<path d="M0.5 89V74H3.87038V86.1472H9.78575V89H0.5Z" fill="white"/>
<path d="M16.9525 89V74H26.307V76.8528H20.3229V79.8666H25.4128V82.6963H20.3229V86.1472H26.5363V89H16.9525Z" fill="white"/>
<path d="M34.0991 89V74H37.5611L41.4589 81.454L42.9263 84.7669H43.018C42.9415 83.9693 42.8498 83.0798 42.7428 82.0982C42.6511 81.1166 42.6053 80.181 42.6053 79.2914V74H45.8152V89H42.3531L38.4553 81.523L36.988 78.2561H36.8962C36.9727 79.0844 37.0567 79.9739 37.1485 80.9248C37.2554 81.8758 37.3089 82.796 37.3089 83.6856V89H34.0991Z" fill="white"/>
<path d="M53.539 89V74H58.9271C59.7219 74 60.4632 74.0767 61.1511 74.2301C61.8542 74.3834 62.4656 74.6442 62.9853 75.0123C63.505 75.365 63.9177 75.8405 64.2234 76.4387C64.5291 77.0368 64.6819 77.7807 64.6819 78.6702C64.6819 79.7745 64.4374 80.6871 63.9482 81.408C63.4744 82.1135 62.8324 82.6426 62.0223 82.9954L65.4156 89H61.6325L58.7666 83.5936H56.9094V89H53.539ZM56.9094 80.9018H58.6519C59.5385 80.9018 60.211 80.7178 60.6696 80.3497C61.1434 79.9663 61.3803 79.4064 61.3803 78.6702C61.3803 77.934 61.1434 77.4202 60.6696 77.1288C60.211 76.8374 59.5385 76.6917 58.6519 76.6917H56.9094V80.9018Z" fill="white"/>
<path d="M76.4982 81.408L76.1314 82.7883H79.3183L78.9744 81.408C78.7604 80.6564 78.5541 79.8589 78.3554 79.0153C78.1566 78.1718 77.9579 77.3589 77.7592 76.5767H77.6675C77.4841 77.3742 77.293 78.1948 77.0943 79.0383C76.9109 79.8666 76.7122 80.6564 76.4982 81.408ZM71.0872 89L75.7645 74H79.8227L84.5 89H80.9233L80.0062 85.434H75.4435L74.5264 89H71.0872Z" fill="white"/>
</svg>
